<svg width="27" height="24" viewBox="0 0 27 24" fill="none" xmlns="http://www.w3.org/2000/svg">
  <path d="M13.5 14.4C14.83 14.4 15.91 13.32 15.91 11.99C15.91 10.66 14.83 9.58 13.5 9.58C12.17 9.58 11.09 10.66 11.09 11.99C11.09 13.32 12.17 14.4 13.5 14.4Z" fill="#0370E8"/>
  <path d="M13.5 17.5C10.12 17.5 7.17 17.1 4.95 16.35C3.52 15.86 2.3 15.21 1.43 14.47C0.51 13.68 0.02 12.82 0.02 11.99C0.02 10.4 1.77 8.85 4.71 7.83C7.11 6.99 10.24 6.52 13.5 6.52C16.71 6.52 19.8 6.98 22.19 7.81C23.59 8.29 24.77 8.91 25.6 9.61C26.5 10.37 26.98 11.21 26.98 11.99C26.98 13.65 25.03 15.32 21.89 16.36C19.66 17.1 16.69 17.5 13.5 17.5ZM13.5 7.66C10.4 7.66 7.33 8.11 5.08 8.89C2.39 9.83 1.18 11.12 1.18 11.99C1.18 12.88 2.48 14.29 5.33 15.26C7.43 15.98 10.27 16.36 13.5 16.36C16.55 16.36 19.39 15.97 21.51 15.26C24.47 14.27 25.82 12.87 25.82 11.99C25.82 11.53 25.47 10.99 24.84 10.46C24.12 9.86 23.07 9.31 21.81 8.87C19.54 8.1 16.58 7.66 13.5 7.66Z" fill="#0370E8"/>
  <path d="M8.04 24C7.55 24 7.12 23.89 6.76 23.68C5.38 22.88 4.9 20.59 5.48 17.54C5.95 15.04 7.12 12.1 8.76 9.26C10.37 6.47 12.31 4.02 14.21 2.37C15.33 1.4 16.46 0.69 17.48 0.32C18.59 -0.09 19.55 -0.09 20.26 0.31C21.7 1.13 22.18 3.67 21.5 6.91C21.03 9.22 19.9 11.99 18.31 14.74C16.62 17.67 14.79 20.03 13.03 21.57C11.89 22.57 10.72 23.3 9.64 23.68C9.08 23.88 8.55 24 8.04 24ZM9.25 9.55L9.75 9.84C8.2 12.52 7.05 15.4 6.61 17.75C6.08 20.55 6.6 22.25 7.34 22.68C7.52 22.78 7.77 22.84 8.04 22.84C9 22.84 10.5 22.23 12.24 20.71C13.91 19.26 15.65 16.99 17.27 14.17C18.8 11.53 19.89 8.87 20.34 6.68C20.96 3.62 20.42 1.75 19.65 1.31C19.26 1.08 18.62 1.11 17.85 1.39C16.96 1.72 15.96 2.36 14.95 3.24C13.14 4.81 11.3 7.15 9.75 9.83L9.25 9.55Z" fill="#0370E8"/>
</svg>
