<svg width="25" height="25" viewBox="0 0 32 32" xmlns="http://www.w3.org/2000/svg" fill="none">
  <path d="M16 0C7.16344 0 0 7.16344 0 16C0 24.8366 7.16344 32 16 32C24.8366 32 32 24.8366 32 16C32 7.16344 24.8366 0 16 0ZM15.9974 29.4976C8.73361 29.4976 3.00243 23.7664 3.00243 16.5026C3.00243 9.23875 8.73361 3.50757 15.9974 3.50757C23.2613 3.50757 28.9924 9.23875 28.9924 16.5026C28.9924 23.7664 23.2613 29.4976 15.9974 29.4976ZM13.839 9.9984C12.5607 9.81227 11.5374 10.7947 10.5274 12.0064C9.08749 13.8184 8.62574 16.355 10.2736 18.0484C11.8021 19.6432 14.5136 19.4557 16.0004 17.7324C17.4274 16.0584 17.2146 13.2384 14.9964 12.0546C14.2924 11.6984 13.4964 11.3424 13.839 9.9984Z" fill="#CC6699"/>
</svg>
